<?xml version="1.0" standalone="no"?>
<!DOCTYPE svg PUBLIC "-//W3C//DTD SVG 20010904//EN"
 "http://www.w3.org/TR/2001/REC-SVG-20010904/DTD/svg10.dtd">
<svg version="1.0" xmlns="http://www.w3.org/2000/svg"
 width="1254.000000pt" height="1254.000000pt" viewBox="0 0 1254.000000 1254.000000"
 preserveAspectRatio="xMidYMid meet">

<g transform="translate(0.000000,1254.000000) scale(0.100000,-0.100000)"
fill="#000000" stroke="none">
<path d="M3935 9815 c-163 -34 -470 -115 -499 -132 -8 -4 -36 -28 -60 -51 -58
-55 -63 -83 -37 -213 56 -286 63 -339 51 -354 -6 -8 -71 -45 -143 -83 -73 -38
-162 -88 -200 -111 -37 -22 -79 -41 -93 -41 -19 0 -64 35 -177 142 -84 78
-162 151 -174 164 -31 32 -87 48 -122 36 -85 -30 -482 -387 -580 -523 -36 -49
-41 -108 -13 -151 9 -14 77 -97 150 -184 72 -86 132 -164 132 -174 0 -9 -19
-46 -41 -81 -23 -35 -80 -127 -126 -204 -46 -77 -88 -144 -93 -149 -4 -4 -109
15 -235 44 -261 60 -271 60 -347 -12 -43 -41 -49 -53 -106 -228 -93 -281 -155
-517 -149 -564 9 -67 40 -87 262 -166 110 -39 208 -79 218 -89 17 -17 18 -28
8 -170 -6 -84 -11 -196 -11 -249 0 -53 -4 -103 -9 -110 -4 -7 -93 -40 -197
-73 -173 -55 -193 -64 -232 -102 -51 -49 -72 -85 -72 -123 0 -90 150 -697 186
-751 20 -31 79 -56 118 -51 17 3 115 22 218 43 145 30 193 36 211 28 15 -7 44
-54 88 -145 37 -73 85 -167 108 -207 22 -40 41 -85 41 -101 0 -29 -25 -63
-160 -222 -139 -163 -148 -180 -136 -243 8 -41 138 -196 367 -437 220 -231
222 -231 455 -41 87 72 168 133 180 137 16 5 49 -12 135 -69 63 -42 161 -104
218 -138 57 -34 108 -72 114 -84 7 -16 -1 -74 -32 -230 -22 -114 -41 -217 -41
-228 0 -27 34 -80 63 -99 35 -23 408 -148 585 -195 235 -64 243 -59 354 218
51 127 80 188 96 199 20 13 44 13 185 3 89 -6 203 -11 253 -11 78 0 93 -3 109
-20 10 -11 44 -106 75 -212 87 -294 84 -293 410 -224 118 25 282 64 364 86
163 43 208 70 222 134 4 17 -6 114 -22 228 -34 233 -43 209 106 278 52 25 140
69 195 99 55 30 117 63 139 73 26 13 35 23 28 30 -18 18 -145 27 -380 28
l-233 0 7 23 c4 12 11 25 16 28 7 4 6 9 0 13 -6 3 -264 5 -574 4 -586 -2 -662
2 -883 43 -687 127 -1296 544 -1666 1139 -272 440 -416 995 -379 1467 62 798
454 1484 1088 1907 241 160 518 285 792 355 248 64 349 76 620 75 205 -1 254
-5 380 -27 258 -46 469 -116 701 -233 196 -99 433 -266 546 -383 l42 -43 25
28 c26 29 28 61 10 126 -9 31 18 30 50 -1 l32 -31 22 23 22 23 -35 -4 c-33 -4
-65 10 -65 29 0 8 40 24 53 21 35 -9 -93 116 -215 211 l-57 44 89 109 c49 60
90 114 90 120 0 7 -11 15 -24 18 -13 3 -66 32 -117 64 -52 33 -147 87 -211
121 -65 34 -120 70 -123 80 -3 10 15 119 40 242 28 135 44 236 40 255 -10 55
-50 81 -196 125 -177 53 -481 129 -544 136 -46 5 -54 2 -98 -33 -60 -47 -66
-58 -138 -273 -33 -97 -66 -181 -74 -187 -23 -17 -533 -10 -550 7 -7 8 -38
100 -70 204 -68 226 -79 251 -116 270 -40 21 -73 18 -254 -20z"/>
<path d="M7349 9171 c11 -7 2 -22 -39 -68 l-53 -58 56 57 c59 59 69 78 40 78
-15 0 -15 -2 -4 -9z"/>
<path d="M6970 9030 c-6 -11 -8 -20 -6 -20 3 0 10 9 16 20 6 11 8 20 6 20 -3
0 -10 -9 -16 -20z"/>
<path d="M6916 8908 c-3 -13 -5 -48 -4 -78 1 -52 1 -51 8 20 8 79 7 96 -4 58z"/>
<path d="M7161 8894 c15 -57 20 -64 13 -19 -3 22 -10 44 -14 49 -5 5 -5 -8 1
-30z"/>
<path d="M7439 8753 l-34 -38 38 34 c34 33 42 41 34 41 -2 0 -19 -17 -38 -37z"/>
<path d="M7310 8720 c14 -4 36 -8 50 -8 22 0 22 1 -5 8 -16 4 -39 8 -50 8 -16
0 -15 -2 5 -8z"/>
<path d="M6958 8635 c21 -43 102 -124 143 -144 19 -10 18 -7 -6 11 -75 57 -90
75 -77 90 9 12 7 19 -13 38 -18 16 -25 19 -25 9 0 -9 -8 -5 -21 11 l-20 25 19
-40z"/>
<path d="M4400 8649 c-89 -11 -214 -34 -290 -55 -144 -39 -220 -66 -215 -74 3
-6 0 -7 -8 -4 -8 3 -50 -9 -93 -26 -91 -36 -337 -162 -374 -191 l-25 -20 26
12 c23 10 30 8 48 -10 19 -19 41 -26 65 -22 5 1 3 -6 -5 -15 -11 -15 -8 -14
21 3 114 70 346 170 500 216 584 177 1210 100 1747 -213 57 -34 108 -58 112
-55 5 3 18 20 29 38 l19 34 -83 52 c-118 74 -215 123 -231 117 -8 -3 -12 -2
-9 3 12 18 -263 121 -433 161 -177 42 -263 52 -496 55 -126 2 -264 -1 -305 -6z
m-770 -280 c0 -17 -6 -19 -40 -17 -48 2 -50 9 -7 30 37 18 47 15 47 -13z"/>
<path d="M7574 8630 c-6 -6 -20 -12 -31 -14 -11 -3 -30 -10 -41 -17 -18 -11
-19 -15 -6 -35 14 -20 13 -23 -7 -38 -19 -13 -25 -13 -42 -1 -30 21 -95 -1
-99 -32 -1 -14 -22 -40 -38 -46 -8 -4 3 -4 25 -1 90 13 192 80 233 153 23 41
25 50 6 31z"/>
<path d="M6950 8546 c0 -2 8 -10 18 -17 15 -13 16 -12 3 4 -13 16 -21 21 -21
13z"/>
<path d="M7010 8486 c0 -2 8 -10 18 -17 15 -13 16 -12 3 4 -13 16 -21 21 -21
13z"/>
<path d="M7050 8456 c0 -3 11 -11 25 -18 l24 -13 -56 -65 c-31 -36 -42 -51
-24 -35 18 17 46 47 62 67 l30 37 -31 16 c-16 8 -30 13 -30 11z"/>
<path d="M7223 8443 c15 -2 37 -2 50 0 12 2 0 4 -28 4 -27 0 -38 -2 -22 -4z"/>
<path d="M7035 8410 c-3 -5 -1 -10 4 -10 6 0 11 5 11 10 0 6 -2 10 -4 10 -3 0
-8 -4 -11 -10z"/>
<path d="M6649 8353 c-13 -16 -12 -17 4 -4 9 7 17 15 17 17 0 8 -8 3 -21 -13z"/>
<path d="M6883 8303 c9 -2 17 -8 17 -13 0 -5 -7 -7 -15 -4 -8 4 -15 1 -15 -5
0 -6 -11 -11 -25 -11 -25 0 -25 -1 -8 -19 10 -10 28 -24 41 -30 l23 -12 -38
-44 c-25 -28 -44 -41 -55 -38 -10 2 -18 -1 -18 -7 0 -6 5 -8 10 -5 6 3 10 2
10 -4 0 -17 -14 -20 -27 -6 -10 10 -9 16 2 25 19 16 19 60 1 86 -14 19 -15 19
-34 -4 -17 -19 -29 -22 -96 -22 -73 0 -77 -1 -86 -25 -5 -14 -9 -33 -8 -43 4
-50 -1 -61 -29 -57 -56 8 -74 14 -90 30 -14 15 -18 14 -49 -16 -33 -32 -47
-52 -21 -30 18 15 37 -5 37 -40 0 -37 -41 -65 -70 -47 -21 13 -25 27 -12 44 8
12 -12 -9 -229 -238 -164 -173 -218 -233 -188 -211 17 14 39 0 39 -24 0 -6 11
-1 25 12 30 31 73 32 109 4 36 -29 37 -89 0 -126 -14 -14 -19 -23 -11 -20 10
4 18 -1 22 -14 4 -11 11 -16 18 -12 7 4 6 -1 -2 -10 -7 -9 -9 -17 -4 -17 14 0
204 210 199 219 -3 5 4 17 17 27 l22 19 -19 -22 c-11 -13 -17 -23 -13 -23 5 0
242 251 555 587 102 111 139 157 95 122 -9 -8 -14 -9 -10 -3 6 10 -56 36 -79
33 -5 -1 -1 -3 9 -6z m-186 -309 c2 -6 -13 -25 -33 -44 -21 -19 -33 -28 -29
-21 5 8 10 26 12 40 5 49 6 49 27 42 11 -5 21 -12 23 -17z m-451 -116 c-1 -30
-4 -33 -36 -36 l-35 -3 34 35 c19 20 36 36 36 36 1 0 2 -15 1 -32z m284 -71
c0 -2 -10 -12 -22 -23 l-23 -19 19 23 c18 21 26 27 26 19z m-475 -117 c-10
-11 -23 -20 -28 -20 -6 0 0 11 13 25 27 29 42 25 15 -5z"/>
<path d="M3340 8249 c-53 -36 -91 -72 -48 -44 26 16 27 16 23 -3 -5 -27 5 -63
16 -56 5 3 14 2 21 -2 18 -11 -21 -35 -41 -24 -9 5 -30 14 -48 22 -26 10 -30
15 -20 27 17 22 -60 -36 -119 -88 -48 -43 -38 -40 20 7 32 26 36 24 40 -12 3
-22 0 -25 -20 -20 -20 5 -24 2 -24 -15 0 -12 5 -21 12 -21 6 0 8 -3 5 -7 -4
-3 -2 -11 3 -18 7 -8 -3 -23 -30 -50 -22 -22 -40 -34 -40 -28 0 7 -10 15 -22
19 -12 3 -28 13 -36 21 -13 12 -11 18 9 41 13 15 -9 -4 -49 -43 -65 -63 -94
-96 -57 -65 17 14 39 4 31 -15 -3 -8 4 -25 16 -40 19 -24 19 -27 3 -45 -9 -10
-26 -17 -38 -15 -75 12 -89 25 -61 58 10 13 0 3 -24 -22 -51 -55 -136 -170
-129 -177 2 -3 18 17 36 43 17 26 47 66 67 88 32 36 34 37 13 6 -18 -27 -19
-35 -8 -41 7 -5 10 -12 6 -16 -4 -4 2 -17 13 -29 l20 -22 -28 -39 c-36 -50
-44 -64 -38 -64 7 0 98 133 100 147 1 7 6 16 11 20 4 4 5 1 0 -7 -4 -8 15 10
43 40 48 52 66 80 40 64 -7 -4 -8 -3 -4 5 4 6 11 9 14 7 4 -2 55 41 112 97 58
56 96 95 85 86 -25 -20 -45 -32 -45 -26 0 3 17 17 37 33 20 15 33 22 29 16
-14 -23 5 -12 79 47 40 32 71 62 67 67 -4 4 -1 4 6 0 20 -12 71 31 67 56 -7
32 -22 43 -68 47 -5 1 -5 6 -2 11 9 15 5 13 -45 -21z m-250 -343 c0 -2 -8 -10
-17 -17 -16 -13 -17 -12 -4 4 13 16 21 21 21 13z m-130 -140 c0 -2 -8 -10 -17
-17 -16 -13 -17 -12 -4 4 13 16 21 21 21 13z"/>
<path d="M6515 8208 c-22 -24 -28 -32 -14 -20 19 16 28 20 31 11 6 -17 38 -4
38 16 0 8 -5 15 -11 15 -5 0 -7 5 -4 10 13 21 -2 9 -40 -32z"/>
<path d="M3484 8214 c-18 -14 -18 -15 4 -4 12 6 22 13 22 15 0 8 -5 6 -26 -11z"/>
<path d="M7731 8016 c2 -2 18 -6 34 -10 22 -5 26 -4 15 4 -14 9 -59 15 -49 6z"/>
<path d="M7512 7969 c-24 -17 -41 -33 -39 -36 3 -2 26 12 52 31 57 44 47 47
-13 5z"/>
<path d="M7238 7983 c7 -3 16 -2 19 1 4 3 -2 6 -13 5 -11 0 -14 -3 -6 -6z"/>
<path d="M8241 7937 c-6 -6 -11 -15 -11 -21 0 -5 -8 -18 -17 -30 -10 -11 4 -4
30 14 27 19 50 37 52 40 6 10 -44 7 -54 -3z m29 -1 c0 -2 -8 -10 -17 -17 -16
-13 -17 -12 -4 4 13 16 21 21 21 13z"/>
<path d="M7896 7930 c4 -8 13 -22 21 -31 8 -9 23 -39 33 -65 11 -27 19 -40 19
-29 0 11 -6 31 -14 45 -8 14 -14 30 -14 35 0 6 7 -2 15 -17 17 -32 34 -36 34
-9 0 24 -41 56 -51 40 -4 -6 -15 1 -28 18 -13 15 -19 21 -15 13z"/>
<path d="M7061 7905 c-1 -5 -5 -27 -10 -48 l-9 -38 73 -36 73 -37 4 -65 3 -65
-62 -49 c-65 -50 -86 -75 -33 -37 18 12 30 16 30 10 0 -7 7 -10 15 -6 8 3 15
1 15 -4 0 -5 29 -37 65 -72 65 -61 65 -62 43 -75 -22 -13 -22 -13 7 -7 17 4
32 8 34 10 2 2 21 -10 41 -26 39 -31 56 -38 44 -18 -4 7 -3 8 5 4 6 -4 9 -12
6 -17 -4 -5 1 -12 9 -15 11 -4 14 -14 11 -33 l-5 -26 10 27 c10 22 20 28 74
37 85 15 106 14 128 -6 16 -14 25 -15 60 -6 22 6 74 9 115 6 60 -4 79 -1 101
13 33 22 92 20 110 -4 12 -15 13 -14 8 13 -5 25 1 37 39 78 l45 48 87 -3 88
-3 22 75 c33 113 34 111 -49 147 -64 27 -73 34 -76 60 -9 102 -12 113 -38 113
-15 0 -24 -6 -24 -15 0 -18 -12 -19 -28 -3 -9 9 -16 7 -32 -7 -22 -20 -27 -61
-7 -68 7 -3 5 -6 -5 -6 -11 -1 -18 -9 -18 -20 0 -12 -9 -20 -25 -23 -23 -5
-25 -2 -26 36 -1 36 -3 33 -9 -19 -10 -74 -22 -104 -61 -161 -16 -24 -27 -44
-23 -44 15 0 -33 -43 -68 -61 -58 -30 -59 -22 -1 11 28 16 55 35 59 42 5 7 -3
5 -16 -4 -58 -41 -88 -52 -161 -56 -61 -4 -85 0 -121 16 -64 28 -123 85 -154
148 -23 47 -26 63 -22 126 3 40 8 81 13 91 7 17 6 18 -30 3 -21 -9 -54 -16
-74 -16 -27 0 -32 -3 -21 -10 12 -8 11 -10 -7 -10 -32 0 -75 18 -68 29 3 6 -3
10 -12 10 -10 1 -31 2 -48 3 -61 3 -77 -1 -71 -18 5 -12 2 -15 -10 -10 -8 3
-17 6 -19 6 -2 0 1 16 6 36 6 19 8 41 5 47 -2 7 -5 8 -5 2z m1106 -172 c-4
-17 -4 -17 -12 0 -4 9 -4 25 0 35 8 16 8 16 12 0 3 -10 3 -26 0 -35z m-960
-30 c-3 -10 -5 -4 -5 12 0 17 2 24 5 18 2 -7 2 -21 0 -30z m182 -10 c0 -31 -2
-34 -9 -18 -12 28 -12 55 0 55 6 0 10 -17 9 -37z m86 -173 c10 -11 16 -20 13
-20 -3 0 -13 9 -23 20 -10 11 -16 20 -13 20 3 0 13 -9 23 -20z"/>
<path d="M6677 7872 c-24 -25 -26 -32 -17 -56 15 -40 12 -44 -11 -17 -19 23
-20 23 -40 5 -39 -35 -43 -53 -17 -81 12 -13 57 -81 98 -151 41 -69 78 -125
83 -124 29 9 162 -109 173 -154 3 -13 13 -28 21 -33 19 -10 24 -87 6 -83 -21
4 -15 -3 32 -37 25 -18 52 -48 60 -67 11 -27 20 -34 41 -34 26 0 26 1 19 48
-20 133 -141 460 -235 635 -37 68 -69 112 -55 74 3 -7 -2 -21 -12 -29 -17 -16
-21 -12 -67 58 -28 41 -50 74 -51 74 -1 0 -14 -13 -28 -28z"/>
<path d="M2745 7630 c-4 -6 -10 -8 -15 -5 -10 6 -102 -139 -158 -251 -250
-497 -321 -1054 -201 -1559 39 -162 125 -425 139 -425 8 0 50 131 49 151 0 8
-4 6 -9 -6 -5 -11 -9 -14 -9 -7 -1 7 -6 10 -11 7 -6 -4 -22 -8 -35 -11 -20 -4
-27 1 -35 21 -13 35 -13 45 3 45 19 0 49 35 40 45 -5 4 -2 5 5 1 7 -4 12 -2
12 6 0 9 3 9 10 -2 8 -11 9 -9 5 10 -16 70 -54 182 -55 165 -1 -13 -5 -9 -11
13 -6 19 -8 39 -5 45 2 7 5 1 5 -12 1 -13 3 -22 6 -19 3 2 -5 67 -16 144 -26
179 -28 439 -5 608 22 151 75 360 128 496 22 58 42 120 43 138 1 18 7 38 15
45 10 10 10 8 1 -10 -6 -12 -11 -25 -11 -30 1 -4 10 9 21 30 11 21 17 43 13
49 -4 6 -3 8 3 5 13 -8 26 20 16 35 -4 7 -1 8 7 3 10 -6 12 -4 7 9 -5 11 -3
15 5 10 8 -5 9 -2 5 10 -5 11 -3 15 5 10 8 -5 9 -2 5 10 -4 10 -3 15 3 11 12
-7 33 32 24 47 -4 7 -3 8 4 4 14 -8 36 30 26 46 -4 7 -3 8 4 4 11 -7 38 32 28
41 -3 3 -1 13 4 22 10 20 3 34 -27 50 -27 14 -30 14 -38 1z m-132 -225 c-3 -9
-8 -14 -10 -11 -3 3 -2 9 2 15 9 16 15 13 8 -4z m-156 -1502 c-3 -10 -5 -4 -5
12 0 17 2 24 5 18 2 -7 2 -21 0 -30z m-22 -143 c5 -14 3 -20 -3 -16 -6 3 -12
0 -15 -6 -7 -20 -14 -7 -22 41 l-7 43 20 -20 c11 -11 23 -30 27 -42z"/>
<path d="M3316 7631 c-14 -22 -43 -178 -39 -206 3 -19 -34 -157 -100 -380
-165 -549 -236 -788 -372 -1255 -70 -239 -138 -456 -151 -482 -13 -25 -26 -65
-30 -87 l-7 -41 271 0 271 0 16 58 c18 64 289 983 361 1224 26 87 49 156 51
154 6 -5 163 -912 163 -940 0 -3 80 -6 178 -6 l178 0 150 197 c321 425 567
744 570 740 2 -1 -28 -106 -65 -233 -38 -126 -121 -405 -185 -619 -135 -458
-140 -472 -168 -502 -19 -20 -20 -26 -8 -48 l13 -25 192 0 c110 0 195 -4 201
-10 5 -5 36 -11 69 -12 l60 -3 16 55 c9 30 33 116 54 190 20 74 79 275 130
445 186 622 285 955 355 1195 90 310 119 400 131 400 5 0 9 -6 10 -12 0 -15
52 122 63 166 l7 29 -143 -7 c-79 -3 -217 -9 -308 -13 l-165 -6 -65 -86 c-36
-47 -164 -214 -285 -371 -237 -306 -411 -534 -513 -670 -35 -47 -68 -86 -73
-88 -5 -2 -9 7 -9 20 0 14 -20 152 -44 309 -25 156 -66 420 -92 587 l-48 302
-168 0 c-95 0 -168 4 -168 9 0 5 -35 12 -77 15 -43 4 -110 9 -149 12 -45 3
-74 2 -78 -5z"/>
<path d="M5882 7470 c0 -19 2 -27 5 -17 2 9 2 25 0 35 -3 9 -5 1 -5 -18z"/>
<path d="M8435 7210 l-170 -170 -463 0 c-455 0 -464 0 -469 -20 -3 -11 -13
-20 -22 -20 -14 0 -14 -2 -1 -10 9 -6 206 -10 506 -10 l491 0 133 135 134 135
880 0 879 0 68 65 67 65 -932 0 -931 0 -170 -170z"/>
<path d="M10557 7275 l-108 -105 74 0 c64 0 76 3 93 23 11 12 59 59 107 105
l87 82 -73 0 -72 -1 -108 -104z"/>
<path d="M10894 7275 l-109 -104 73 -1 72 0 108 105 107 104 -71 1 -71 0 -109
-105z"/>
<path d="M11233 7278 c-57 -55 -103 -103 -103 -105 0 -1 30 -3 66 -3 l66 0 82
80 82 80 95 0 c85 1 97 3 124 25 l30 25 -170 0 -170 0 -102 -102z m240 65 c-7
-2 -21 -2 -30 0 -10 3 -4 5 12 5 17 0 24 -2 18 -5z"/>
<path d="M5738 6856 c-26 -7 -62 -24 -81 -39 -41 -31 -113 -129 -152 -206 -15
-30 -92 -278 -172 -550 -125 -428 -144 -503 -139 -544 5 -44 13 -57 104 -155
54 -59 109 -122 121 -139 l22 -33 462 0 462 0 107 170 c59 93 110 181 114 195
l6 25 -459 0 c-344 0 -462 3 -471 12 -7 7 -12 23 -12 38 0 22 63 247 72 255 2
2 219 5 482 7 l479 4 39 134 c22 74 66 227 99 340 77 266 77 332 2 420 -28 33
-41 40 -70 40 -20 0 -46 9 -60 20 -25 19 -40 20 -467 19 -321 0 -454 -4 -488
-13z m657 -366 c20 -22 17 -38 -31 -197 l-25 -83 -260 0 c-142 0 -259 4 -259
8 0 4 16 62 34 127 50 173 35 165 305 165 204 0 219 -1 236 -20z"/>
<path d="M9548 6773 c-62 -4 -66 -5 -73 -31 -3 -15 -20 -71 -36 -126 l-31 -98
-29 28 c-30 28 -33 29 -143 29 -104 0 -115 -2 -152 -26 -51 -34 -63 -59 -125
-273 -56 -189 -56 -199 -9 -223 13 -6 27 -19 32 -27 7 -13 27 -16 92 -16 72 0
91 4 140 29 l57 28 -6 -28 -7 -29 85 0 84 0 31 103 c115 389 183 602 197 616
25 28 19 51 -12 49 -16 -1 -58 -3 -95 -5z m-199 -338 l29 -14 -37 -122 c-26
-87 -43 -126 -58 -136 -12 -8 -55 -17 -97 -20 -63 -5 -77 -3 -81 10 -10 24 63
259 87 280 25 22 117 23 157 2z"/>
<path d="M7421 6748 c-79 -22 -101 -52 -142 -186 -40 -135 -38 -186 12 -213
11 -6 86 -23 166 -39 79 -15 149 -32 155 -38 11 -11 -8 -89 -27 -110 -13 -14
-56 -18 -173 -14 l-73 2 7 45 6 45 -84 0 -84 0 -17 -53 c-26 -81 -23 -131 9
-156 25 -20 39 -21 241 -21 236 0 260 5 306 59 16 20 41 76 62 147 32 102 35
119 25 150 -16 46 -39 56 -213 87 -76 13 -143 29 -148 34 -13 13 8 98 27 114
19 16 200 19 221 4 13 -10 14 -17 5 -43 l-11 -32 88 0 88 0 17 58 c27 98 18
134 -39 158 -40 17 -368 19 -424 2z"/>
<path d="M8153 6723 l-72 -4 -21 -69 -21 -70 -49 0 -49 0 -20 -62 -19 -63 48
-5 48 -5 -48 -160 c-58 -188 -61 -225 -24 -254 23 -18 41 -21 134 -21 l107 0
16 57 c19 66 15 73 -50 73 -34 0 -43 4 -43 18 0 9 19 79 42 155 l41 137 63 0
62 0 20 59 c11 33 18 62 14 65 -3 3 -31 6 -63 6 l-57 0 12 48 c7 26 18 58 25
69 15 29 14 33 -6 31 -10 -1 -50 -4 -90 -5z"/>
<path d="M11068 6723 l-58 -4 -21 -69 -21 -70 -49 0 -48 0 -15 -47 c-8 -27
-17 -56 -21 -65 -6 -16 -1 -18 39 -18 32 0 46 -4 46 -13 0 -8 -23 -87 -50
-178 -72 -235 -66 -249 112 -249 l107 0 16 52 c8 28 15 55 15 60 0 4 -20 8
-44 8 -24 0 -48 6 -54 13 -8 9 2 53 33 157 l43 145 64 3 65 3 16 53 c24 77 25
76 -44 76 -52 0 -60 2 -55 16 3 9 9 33 12 55 4 21 13 44 20 50 23 19 16 29
-18 27 -18 -1 -59 -3 -90 -5z"/>
<path d="M8417 6573 c-4 -8 -94 -310 -125 -423 -30 -109 2 -140 145 -140 79 0
94 4 142 30 30 17 56 28 58 26 2 -2 -1 -15 -6 -30 l-11 -26 85 0 84 0 30 98
c28 93 126 418 137 455 5 16 -2 18 -82 15 l-87 -3 -59 -195 c-32 -107 -64
-200 -71 -208 -18 -17 -127 -37 -160 -28 -15 3 -27 13 -27 20 0 8 26 103 58
210 33 108 57 198 54 201 -8 8 -160 6 -165 -2z"/>
<path d="M9720 6558 c-24 -13 -52 -37 -62 -54 -25 -43 -118 -356 -118 -397 0
-34 22 -63 67 -86 14 -7 89 -11 206 -11 l185 0 28 37 c27 35 54 80 54 89 0 2
-81 4 -180 4 l-180 0 1 23 c1 12 4 33 8 47 l7 25 189 5 190 5 32 105 c40 128
39 174 0 204 -26 19 -44 21 -205 24 -168 3 -179 2 -222 -20z m280 -120 c0 -7
-5 -30 -11 -50 l-10 -38 -100 0 -101 0 7 33 c15 66 17 67 120 67 69 0 95 -3
95 -12z"/>
<path d="M10285 6568 c-2 -7 -38 -128 -80 -268 -42 -140 -78 -263 -81 -272 -5
-16 3 -18 79 -18 l85 0 26 88 c100 325 95 312 124 324 44 18 161 23 167 7 4
-11 -31 -137 -111 -401 -5 -16 3 -18 80 -18 72 0 85 3 90 18 3 9 35 115 71
236 59 198 65 222 54 253 -16 49 -61 67 -160 61 -60 -4 -87 -11 -131 -35 l-56
-30 5 33 6 34 -82 0 c-56 0 -83 -4 -86 -12z"/>
<path d="M10613 5863 c-88 -3 -112 -7 -117 -19 -6 -16 -36 -141 -36 -151 0 -3
50 -3 112 -1 l112 3 14 50 c8 27 20 54 27 60 18 15 29 66 13 63 -7 -1 -63 -4
-125 -5z"/>
<path d="M9332 5853 c-62 -5 -51 16 -122 -223 -29 -96 -72 -236 -95 -310 -24
-74 -58 -182 -75 -240 -17 -58 -40 -134 -51 -169 -10 -35 -18 -65 -16 -67 1
-1 50 -4 108 -6 l106 -3 51 165 c28 91 92 302 143 470 50 168 100 314 109 325
9 11 20 30 23 43 5 21 3 22 -61 20 -37 -1 -91 -3 -120 -5z"/>
<path d="M9718 5852 c-54 -3 -57 -4 -67 -35 -5 -18 -60 -198 -121 -402 -61
-203 -126 -416 -145 -472 l-34 -103 113 0 113 0 40 127 40 126 44 14 c24 7 47
13 51 13 4 0 25 -55 47 -122 22 -68 43 -131 46 -140 5 -13 24 -18 83 -22 144
-11 167 -11 165 -1 -1 6 -34 104 -73 219 l-71 210 23 21 c13 12 89 82 171 155
81 73 147 134 147 136 0 2 -54 4 -119 4 l-119 0 -84 -77 c-149 -137 -240 -215
-245 -210 -5 5 39 160 103 360 19 60 34 115 34 122 0 8 8 22 18 32 11 10 22
26 25 36 7 19 5 19 -185 9z"/>
<path d="M7115 5773 l-51 -4 -17 -67 c-29 -112 -33 -116 -106 -122 -61 -5 -65
-6 -73 -35 -10 -35 -29 -94 -35 -112 -4 -10 11 -13 56 -13 45 0 61 -4 61 -14
0 -7 -29 -107 -65 -222 -68 -218 -73 -246 -53 -289 21 -46 54 -55 202 -55
l134 0 17 48 c9 26 21 62 25 80 l8 32 -74 0 c-54 0 -76 4 -80 14 -5 13 24 119
88 314 l30 92 74 1 c41 1 79 2 85 3 10 1 38 63 59 129 l9 27 -83 0 c-45 0 -85
2 -88 5 -3 3 5 42 17 86 13 44 24 83 25 87 1 4 4 9 7 12 4 3 3 -1 -2 -9 -5 -9
-4 -12 3 -7 39 24 -16 30 -173 19z"/>
<path d="M10978 5772 l-36 -3 -30 -92 -29 -92 -66 -3 -66 -3 -21 -68 c-11 -37
-20 -73 -20 -80 0 -7 22 -11 61 -11 58 0 60 -1 53 -22 -69 -216 -124 -420
-124 -458 0 -37 5 -51 26 -71 24 -23 33 -24 173 -27 l148 -3 21 66 c32 96 33
94 -50 97 -64 3 -73 5 -76 23 -1 11 18 88 44 170 25 83 50 167 56 188 l10 37
88 0 88 0 7 29 c3 16 17 43 31 62 45 61 37 69 -67 69 l-91 0 9 33 c4 17 7 50
6 72 0 22 2 33 6 24 4 -11 12 -3 28 28 l22 43 -82 -2 c-45 -2 -98 -4 -119 -6z"/>
<path d="M2551 5574 c0 -11 3 -14 6 -6 3 7 2 16 -1 19 -3 4 -6 -2 -5 -13z"/>
<path d="M7574 5561 c-51 -23 -81 -54 -104 -106 -24 -52 -150 -469 -150 -494
0 -12 18 -31 50 -51 28 -18 57 -41 64 -52 13 -18 26 -19 237 -16 254 3 280 10
326 79 32 48 173 495 173 548 0 31 -7 49 -29 73 l-29 33 -249 3 c-225 2 -252
0 -289 -17z m346 -156 c19 -23 -84 -371 -116 -391 -32 -21 -223 -15 -237 7 -9
15 12 99 75 297 30 95 42 102 164 102 79 0 104 -3 114 -15z"/>
<path d="M8415 5562 c-63 -29 -99 -79 -133 -184 -71 -215 -123 -402 -118 -422
3 -12 28 -36 56 -54 28 -19 54 -40 57 -48 4 -11 44 -14 222 -14 344 1 326 -19
485 511 34 115 34 150 -3 191 l-29 33 -249 3 c-223 2 -252 0 -288 -16z m345
-157 c10 -12 4 -45 -35 -178 -53 -178 -66 -212 -90 -221 -9 -3 -61 -6 -115 -6
-76 0 -100 3 -110 15 -11 13 -4 45 39 188 31 101 61 181 74 195 19 20 30 22
123 22 78 0 104 -3 114 -15z"/>
<path d="M10420 5576 c0 -3 -49 -166 -110 -362 -60 -197 -110 -362 -110 -366
0 -5 50 -7 111 -6 l112 3 42 140 c23 77 68 224 99 326 31 102 56 195 56 207 0
12 4 22 9 22 5 0 11 9 14 20 5 19 0 20 -109 20 -63 0 -114 -2 -114 -4z"/>
<path d="M2770 5013 c42 -3 71 -10 84 -21 18 -16 18 -16 5 6 -12 20 -21 22
-84 20 l-70 -2 65 -3z"/>
<path d="M2789 4903 c26 -38 49 -56 33 -27 -6 11 -20 28 -33 39 l-23 20 23
-32z"/>
<path d="M2900 4926 c0 -2 8 -10 18 -17 15 -13 16 -12 3 4 -13 16 -21 21 -21
13z"/>
<path d="M2966 4845 c18 -22 42 -49 55 -60 13 -11 4 4 -20 32 -23 29 -48 56
-54 60 -7 4 2 -11 19 -32z"/>
<path d="M2877 4795 c12 -16 34 -41 49 -55 26 -22 27 -22 9 -2 -16 20 -16 22
-2 16 9 -3 17 -2 17 4 0 12 -25 33 -43 36 -8 1 -23 8 -33 16 -15 12 -14 9 3
-15z"/>
<path d="M3150 4655 c19 -19 36 -35 39 -35 3 0 -10 16 -29 35 -19 19 -36 35
-39 35 -3 0 10 -16 29 -35z"/>
<path d="M3044 4612 c13 -14 26 -20 38 -16 10 3 18 1 18 -4 0 -6 -5 -12 -11
-14 -5 -2 5 -14 23 -28 18 -13 27 -16 19 -7 -7 9 -11 17 -7 17 11 0 -24 48
-40 54 -9 3 -12 1 -9 -4 10 -16 -7 -12 -29 8 l-21 17 19 -23z"/>
<path d="M4815 4578 c-14 -17 -129 -137 -254 -266 l-228 -235 -122 27 c-164
36 -329 94 -491 172 -74 35 -125 56 -113 47 28 -23 18 -42 -25 -45 -18 -1 -32
-8 -32 -15 0 -10 -6 -10 -25 -1 -13 6 -22 15 -19 19 2 4 -4 12 -14 18 -14 7
-19 6 -19 -4 0 -7 7 -11 14 -8 8 3 13 0 11 -8 -2 -8 52 -40 142 -85 140 -69
214 -100 180 -74 -12 9 -9 10 15 5 17 -3 35 -11 40 -17 7 -7 2 -8 -15 -4 -14
3 -6 -3 16 -13 52 -24 228 -73 363 -102 l104 -22 106 109 c59 60 185 190 281
290 l175 181 3005 -2 c1653 -2 3015 -1 3026 2 12 2 31 18 43 34 l22 29 -3080
0 -3079 0 -27 -32z m-1054 -333 c24 -13 28 -19 19 -30 -7 -8 -15 -14 -18 -13
-32 4 -54 -4 -48 -17 6 -18 7 -18 -33 -4 -27 9 -29 13 -17 23 9 6 17 25 18 42
2 35 9 35 79 -1z m160 -65 c5 0 1 -9 -8 -20 -23 -27 -33 -25 -33 6 0 20 4 25
16 20 9 -3 20 -6 25 -6z m169 -60 c13 -8 13 -10 -2 -10 -9 0 -20 5 -23 10 -8
13 5 13 25 0z m320 -73 c0 -2 -10 -12 -22 -23 l-23 -19 19 23 c18 21 26 27 26
19z m-185 -37 c13 -5 14 -9 5 -9 -8 0 -24 4 -35 9 -13 5 -14 9 -5 9 8 0 24 -4
35 -9z"/>
<path d="M3220 4596 c0 -2 8 -10 18 -17 15 -13 16 -12 3 4 -13 16 -21 21 -21
13z"/>
<path d="M3300 4527 c0 -2 15 -14 33 -27 20 -15 27 -17 18 -6 -13 16 -51 41
-51 33z"/>
<path d="M3370 4476 c0 -2 14 -14 30 -26 17 -12 30 -19 30 -16 0 2 -13 14 -30
26 -16 12 -30 19 -30 16z"/>
<path d="M3250 4434 c0 -2 26 -21 57 -44 36 -25 60 -37 66 -31 25 25 -29 71
-87 75 -20 2 -36 2 -36 0z"/>
<path d="M3455 4415 c11 -9 29 -21 40 -26 l20 -10 -20 16 c-11 9 -29 21 -40
26 l-20 10 20 -16z"/>
<path d="M8240 4110 l-285 -300 -850 -2 -850 -3 3 -25 c2 -14 6 -27 9 -30 2
-3 420 -6 928 -8 l923 -2 159 162 c87 90 192 198 233 241 l73 77 252 0 251 0
88 95 87 95 -368 -1 -368 0 -285 -299z"/>
<path d="M6702 4172 c-29 -125 -52 -233 -52 -240 0 -8 8 -12 17 -10 14 2 28
50 70 228 28 124 52 231 53 238 0 6 -8 12 -17 12 -15 0 -27 -38 -71 -228z"/>
<path d="M3520 4376 c0 -3 14 -12 30 -21 17 -9 30 -13 30 -11 0 3 -13 12 -30
21 -16 9 -30 13 -30 11z"/>
<path d="M7134 4344 c-32 -19 -65 -41 -72 -48 -18 -18 -102 -246 -102 -278 0
-16 9 -37 20 -48 18 -18 33 -20 160 -20 l140 0 50 33 c42 27 54 42 75 96 47
116 19 141 -160 141 -63 0 -115 4 -115 9 0 4 12 20 26 35 26 25 30 26 155 26
70 0 130 3 133 8 2 4 7 24 11 45 l7 37 -134 0 -134 0 -60 -36z m161 -225 c9
-14 -2 -55 -21 -73 -11 -12 -36 -16 -97 -16 -107 0 -116 6 -92 59 l18 41 93 0
c54 0 96 -4 99 -11z"/>
<path d="M7569 4357 c-28 -19 -40 -40 -68 -116 -29 -77 -32 -94 -20 -102 8 -5
72 -9 142 -9 100 0 129 -3 133 -14 7 -18 -21 -72 -41 -80 -9 -3 -72 -6 -139
-6 l-122 0 -18 -36 c-9 -20 -15 -38 -13 -40 1 -2 71 -4 155 -5 l151 -2 55 38
c46 32 59 47 76 92 44 117 24 137 -142 141 -107 3 -119 5 -113 20 4 10 10 25
12 35 5 15 21 17 144 17 l139 0 15 36 c8 20 15 40 15 45 0 5 -74 9 -164 9
-153 0 -165 -1 -197 -23z"/>
<path d="M4925 4348 c-48 -217 -68 -311 -74 -350 l-8 -48 37 0 37 0 18 95 c11
52 22 95 26 95 13 0 43 -45 78 -118 l35 -72 43 0 c24 0 43 3 43 7 0 3 -24 52
-54 108 l-54 101 86 95 c47 52 77 86 65 76 -20 -17 -24 -18 -44 -3 -24 16 -19
21 31 29 19 3 17 5 -9 6 -31 1 -43 -8 -117 -86 -45 -49 -85 -85 -88 -82 -4 3
0 38 9 78 20 94 20 91 -20 91 -28 0 -36 -4 -40 -22z m9 -124 c3 -8 2 -12 -4
-9 -6 3 -10 10 -10 16 0 14 7 11 14 -7z m179 -261 c-7 -2 -19 -2 -25 0 -7 3
-2 5 12 5 14 0 19 -2 13 -5z"/>
<path d="M5821 4356 c-8 -10 -9 -16 -1 -21 18 -11 11 -23 -14 -21 -20 1 -22 4
-13 16 8 11 6 10 -7 -1 -11 -10 -25 -52 -36 -105 -10 -49 -27 -131 -38 -181
l-19 -93 37 0 c31 0 39 4 43 23 14 65 77 380 77 388 0 14 -16 11 -29 -5z m-30
-161 c5 4 9 -4 9 -16 0 -18 -2 -20 -16 -8 -13 10 -17 10 -25 -2 -10 -16 -11
-4 -2 30 5 20 7 21 15 7 5 -9 13 -14 19 -11z"/>
<path d="M5901 4338 l-20 -33 64 -3 c62 -3 65 -4 60 -25 -3 -12 -21 -91 -39
-174 l-32 -153 37 0 c43 0 36 -18 84 195 14 66 29 128 31 138 4 13 16 17 59
17 50 0 54 2 74 35 l20 35 -158 0 -159 0 -21 -32z"/>
<path d="M6275 4358 c-5 -14 -85 -394 -85 -403 0 -3 52 -5 115 -5 l115 0 13
33 14 32 -84 3 c-46 1 -83 6 -83 10 0 4 11 54 25 111 30 121 36 195 18 197 -7
1 -20 2 -28 3 -30 2 -14 20 23 24 l37 4 -38 1 c-22 1 -39 -3 -42 -10z"/>
<path d="M5263 4157 l-71 -202 31 -3 c39 -4 45 3 82 117 17 50 34 89 40 88 5
-2 23 -47 40 -99 l31 -96 27 41 c42 65 106 152 114 154 5 2 8 -44 7 -102 l-1
-105 39 0 38 0 0 207 c0 172 -2 205 -13 193 -55 -62 -127 -160 -125 -171 2 -7
-3 -13 -9 -14 -7 0 -20 -11 -29 -23 -9 -13 -20 -20 -24 -15 -5 4 -27 55 -50
113 -22 58 -44 108 -48 112 -4 4 -39 -84 -79 -195z m357 150 c0 -7 -9 -18 -21
-25 -17 -11 -20 -11 -13 0 20 36 34 46 34 25z m-210 -145 c0 -25 -25 10 -27
37 l-1 26 14 -25 c7 -14 13 -31 14 -38z"/>
<path d="M8693 3913 c15 -2 37 -2 50 0 12 2 0 4 -28 4 -27 0 -38 -2 -22 -4z"/>
<path d="M8848 3913 c18 -2 45 -2 60 0 15 2 0 4 -33 4 -33 0 -45 -2 -27 -4z"/>
<path d="M9123 3913 c15 -2 39 -2 55 0 15 2 2 4 -28 4 -30 0 -43 -2 -27 -4z"/>
<path d="M9483 3913 c148 -2 386 -2 530 0 144 1 24 2 -268 2 -291 0 -409 -1
-262 -2z"/>
<path d="M10368 3913 c7 -3 16 -2 19 1 4 3 -2 6 -13 5 -11 0 -14 -3 -6 -6z"/>
</g>
</svg>
